<svg xmlns="http://www.w3.org/2000/svg" width="2048" height="2048" shape-rendering="geometricPrecision"><g transform="translate(0, 2048) scale(1, -1)scale(8,8)" stroke-width=".05%"><g fill="#c3c0bf"><path d=" M 123.27 31.16 C 126.39 31.06 129.52 31.07 132.65 31.16 C 132.67 32.37 132.68 33.58 132.69 34.78 C 129.55 34.72 126.40 34.72 123.26 34.80 C 123.25 33.58 123.25 32.37 123.27 31.16 Z"/><path d=" M 124.59 36.11 C 126.81 36.08 129.02 36.08 131.24 36.07 C 131.28 37.67 131.31 39.26 131.34 40.85 C 129.09 40.86 126.85 40.86 124.60 40.82 C 124.58 39.25 124.58 37.68 124.59 36.11 Z"/><path d=" M 124.53 42.35 C 126.74 42.31 128.95 42.31 131.17 42.30 C 131.25 43.85 131.31 45.40 131.37 46.95 C 129.15 46.96 126.93 46.96 124.72 46.97 C 124.66 45.43 124.59 43.89 124.53 42.35 Z"/><path d=" M 124.52 53.63 C 124.55 51.94 124.59 50.26 124.64 48.57 C 126.88 48.58 129.12 48.60 131.36 48.65 C 131.28 50.34 131.22 52.03 131.15 53.73 C 128.94 53.70 126.73 53.67 124.52 53.63 Z"/><path d=" M 124.59 55.18 C 126.83 55.16 129.07 55.17 131.31 55.31 C 131.32 56.81 131.32 58.31 131.30 59.81 C 129.08 59.85 126.86 59.84 124.64 59.85 C 124.60 58.29 124.59 56.73 124.59 55.18 Z"/><path d=" M 124.54 61.53 C 126.79 61.50 129.04 61.50 131.30 61.52 C 131.28 63.05 131.25 64.59 131.21 66.12 C 129.02 66.06 126.82 66.04 124.63 66.04 C 124.59 64.53 124.56 63.03 124.54 61.53 Z"/><path d=" M 123.44 72.83 C 123.80 71.12 124.17 69.41 124.52 67.69 C 126.71 67.78 128.90 67.77 131.09 67.69 C 131.30 69.37 131.55 71.06 131.82 72.73 C 129.03 72.74 126.23 72.73 123.44 72.83 Z"/><path d=" M 124.04 74.09 C 126.47 74.28 128.91 74.25 131.33 73.95 C 131.34 75.68 131.36 77.42 131.37 79.15 C 129.18 79.17 126.98 79.19 124.79 79.21 C 124.61 77.49 124.35 75.78 124.04 74.09 Z"/><path d=" M 124.61 81.05 C 126.82 81.04 129.04 81.04 131.26 81.02 C 131.04 82.51 131.65 84.26 130.68 85.55 C 128.62 85.65 126.55 85.53 124.49 85.40 C 124.51 83.95 124.55 82.50 124.61 81.05 Z"/><path d=" M 97.44 98.63 C 104.13 91.92 113.36 87.21 122.96 87.16 C 129.26 87.29 135.74 86.47 141.83 88.53 C 147.90 90.23 153.24 93.88 158.00 97.93 C 157.79 99.46 157.56 101.00 157.30 102.54 C 154.53 100.76 151.87 98.75 148.84 97.42 C 142.26 94.52 134.99 94.03 127.95 93.12 C 117.77 94.03 107.01 95.61 98.88 102.39 C 98.39 101.14 97.91 99.89 97.44 98.63 Z"/><path d=" M 124.47 94.90 C 126.81 94.82 129.16 94.83 131.50 94.93 C 131.67 97.84 131.10 100.86 132.12 103.66 C 132.42 100.88 132.23 98.08 132.20 95.29 C 134.43 95.54 136.67 95.81 138.90 96.02 C 139.06 109.03 138.93 122.05 138.84 135.06 C 137.83 156.41 136.62 177.75 135.39 199.09 C 133.58 214.77 130.82 230.31 128.00 245.82 C 124.90 230.35 122.41 214.76 120.43 199.11 C 119.63 183.39 118.63 167.67 117.92 151.94 C 116.60 133.34 116.84 114.66 117.10 96.02 C 119.31 95.81 121.51 95.55 123.71 95.26 C 123.68 98.07 123.50 100.89 123.79 103.69 C 124.83 100.88 124.25 97.82 124.47 94.90 Z"/></g><g fill="#74131b"><path d=" M 99.49 68.41 C 103.98 68.71 109.27 68.83 112.25 72.79 C 115.38 77.08 118.56 82.00 124.00 83.53 C 120.51 84.37 116.94 84.78 113.46 85.64 C 107.10 87.78 101.81 92.06 96.65 96.21 C 95.82 99.23 96.66 102.49 96.24 105.60 C 99.34 107.14 101.07 103.79 103.34 102.36 C 106.45 100.48 110.14 100.06 113.64 99.42 C 113.77 102.26 113.92 105.09 114.11 107.93 C 109.44 113.87 106.43 120.95 104.23 128.12 C 102.88 135.98 102.08 144.01 102.40 152.00 C 102.32 154.81 102.68 157.81 101.38 160.41 C 99.68 164.06 97.48 167.51 96.46 171.45 C 94.50 180.15 93.49 189.05 93.31 197.97 C 92.45 208.00 92.46 218.09 92.81 228.15 C 86.92 226.02 83.77 219.90 82.67 214.09 C 82.21 209.55 82.70 204.95 81.85 200.43 C 80.82 194.63 81.41 188.73 81.08 182.88 C 77.75 188.84 76.42 195.63 73.78 201.88 C 72.01 205.84 71.59 210.58 68.30 213.69 C 66.16 209.58 64.46 204.84 65.30 200.15 C 67.42 191.17 71.18 182.64 73.06 173.61 C 71.14 177.34 68.52 180.62 65.44 183.45 C 61.52 187.13 59.22 192.13 55.49 195.95 C 55.15 195.97 54.47 196.03 54.13 196.06 C 53.71 191.50 53.13 186.73 54.41 182.26 C 56.99 176.29 60.92 171.04 64.72 165.80 C 67.43 162.00 70.97 158.80 73.07 154.57 C 70.47 155.69 67.84 156.84 65.53 158.52 C 58.81 163.54 52.11 168.59 45.50 173.75 C 45.11 170.95 44.38 167.96 45.30 165.22 C 50.66 157.12 57.88 150.47 65.53 144.57 C 68.80 141.99 71.80 139.03 74.16 135.58 C 70.35 136.98 66.66 138.75 62.75 139.88 C 55.71 141.93 49.40 145.76 42.57 148.33 C 43.70 138.91 52.04 132.77 60.11 129.18 C 65.22 126.06 71.13 124.22 75.75 120.37 C 64.62 118.49 53.44 120.79 42.59 123.21 C 43.03 120.39 44.16 117.17 47.16 116.19 C 52.33 114.15 57.85 113.26 63.10 111.47 C 69.79 109.59 76.83 109.61 83.56 107.87 C 70.52 106.34 57.50 103.80 44.33 103.87 C 44.89 102.57 45.47 101.28 46.05 100.00 C 54.41 97.15 63.32 97.03 72.03 96.38 C 79.24 95.77 86.41 97.48 93.61 96.65 C 88.14 93.83 82.42 91.56 76.71 89.30 C 71.59 87.37 66.03 87.33 60.75 86.05 C 62.09 82.23 66.33 80.53 69.99 79.81 C 81.47 80.05 92.15 84.82 102.41 89.54 C 96.90 81.29 87.58 77.40 79.57 72.18 C 83.17 70.59 87.06 70.06 90.93 69.61 C 96.92 72.53 101.36 77.67 107.01 81.09 C 105.05 76.55 101.97 72.65 99.49 68.41 Z"/><path d=" M 146.25 70.23 C 149.14 68.56 152.59 68.80 155.79 68.41 C 153.22 72.56 150.29 76.53 148.26 80.99 C 153.89 77.69 158.28 72.63 164.14 69.64 C 168.05 70.08 171.99 70.62 175.67 72.10 C 167.93 77.60 158.18 81.01 153.09 89.56 C 163.12 84.63 173.75 80.26 185.06 79.80 C 188.82 80.40 193.60 82.20 194.32 86.45 C 188.70 87.13 182.95 87.58 177.64 89.67 C 172.17 91.74 166.80 94.06 161.53 96.60 C 169.01 97.55 176.46 95.65 183.93 96.41 C 191.85 97.11 199.96 97.12 207.60 99.55 C 209.76 100.03 210.29 102.45 211.29 104.09 C 207.45 103.76 203.59 103.79 199.77 104.38 C 190.34 105.26 180.97 106.65 171.58 107.92 C 179.24 109.62 187.21 109.77 194.70 112.23 C 199.51 113.82 204.67 114.42 209.20 116.79 C 211.65 118.02 212.09 120.92 212.56 123.33 C 201.75 120.66 190.37 118.27 179.29 120.64 C 182.93 123.25 187.20 124.69 191.03 126.97 C 196.68 130.23 203.10 132.57 207.59 137.51 C 210.20 140.59 212.27 144.28 212.67 148.36 C 206.51 145.92 200.71 142.63 194.41 140.54 C 189.89 139.09 185.49 137.33 181.09 135.58 C 182.85 138.23 184.93 140.67 187.44 142.65 C 195.39 148.93 203.35 155.50 209.11 163.94 C 211.27 166.70 210.01 170.44 210.05 173.63 C 206.00 171.20 202.56 167.94 198.69 165.26 C 193.29 161.50 188.49 156.67 182.10 154.57 C 188.14 163.84 196.44 171.77 200.75 182.13 C 202.05 186.86 202.04 192.13 200.41 196.78 C 196.50 192.53 193.86 187.26 189.67 183.25 C 186.71 180.40 184.10 177.21 182.12 173.61 C 184.03 182.95 188.19 191.69 190.15 201.03 C 190.39 205.43 188.91 209.79 187.02 213.72 C 186.26 212.89 185.54 212.02 184.86 211.13 C 181.15 201.84 178.49 192.10 174.35 182.98 C 174.23 191.03 173.71 199.03 172.82 207.03 C 173.57 215.12 170.73 225.16 162.32 228.14 C 163.03 218.10 162.83 208.01 161.92 198.00 C 161.84 188.71 160.65 179.46 158.53 170.42 C 157.03 164.79 152.14 160.17 152.82 154.01 C 153.07 145.29 152.72 136.49 151.04 127.92 C 148.76 120.86 145.79 113.85 141.17 107.97 C 141.39 105.10 141.48 102.22 141.61 99.34 C 146.17 100.18 151.20 100.92 154.53 104.48 C 155.57 105.82 157.21 105.98 158.77 106.16 C 158.80 102.86 158.91 99.55 158.93 96.25 C 154.48 93.29 150.64 89.45 145.69 87.26 C 141.65 84.51 136.38 85.48 132.18 83.39 C 132.67 83.18 133.64 82.77 134.13 82.56 C 136.32 80.66 138.65 78.86 140.33 76.46 C 142.05 74.18 143.52 71.46 146.25 70.23 Z"/></g></g></svg>